<?xml version="1.0" standalone="no"?>
<!DOCTYPE svg PUBLIC "-//W3C//DTD SVG 20010904//EN"
 "http://www.w3.org/TR/2001/REC-SVG-20010904/DTD/svg10.dtd">
<svg version="1.0" xmlns="http://www.w3.org/2000/svg"
 width="250.000000pt" height="62.000000pt" viewBox="0 0 250.000000 62.000000"
 preserveAspectRatio="xMidYMid meet">
<metadata>
Created by potrace 1.15, written by Peter Selinger 2001-2017
</metadata>
<g transform="translate(0.000000,62.000000) scale(0.100000,-0.100000)"
fill="#000000" stroke="none">
<path d="M1475 558 c-27 -16 -50 -41 -70 -78 -27 -49 -30 -64 -30 -145 0 -80
3 -96 30 -150 38 -76 69 -98 144 -103 105 -8 169 32 196 121 15 52 11 57 -51
57 -28 0 -34 -4 -34 -21 0 -28 -53 -79 -82 -79 -63 0 -98 63 -98 175 0 108 32
164 93 165 35 0 75 -39 84 -80 4 -22 10 -29 20 -26 8 4 30 6 48 6 32 0 33 1
26 33 -22 96 -74 140 -171 145 -53 2 -72 -1 -105 -20z"/>
<path d="M2045 564 c-16 -8 -38 -23 -48 -31 -25 -23 -41 -85 -33 -129 11 -58
49 -87 146 -113 93 -25 120 -42 120 -77 0 -31 -36 -54 -87 -54 -40 0 -93 16
-93 29 0 3 -7 14 -14 24 -12 16 -19 17 -55 7 -45 -12 -48 -18 -26 -60 25 -48
78 -73 165 -78 135 -8 210 46 210 151 0 90 -30 119 -160 152 -107 27 -132 53
-90 95 30 30 94 27 125 -6 20 -21 29 -24 60 -18 44 8 53 25 30 60 -37 57 -180
85 -250 48z"/>
<path d="M20 330 l0 -240 40 0 40 0 2 192 3 192 60 -192 60 -192 30 0 31 0 59
191 60 191 3 -191 2 -191 45 0 45 0 0 240 0 241 -72 -3 -72 -3 -46 -143 -46
-143 -45 143 -46 143 -76 3 -77 3 0 -241z"/>
<path d="M802 330 l-80 -240 43 0 44 0 17 55 18 55 87 0 88 0 17 -55 18 -55
54 0 c46 0 53 2 48 18 -3 9 -39 116 -79 237 l-74 220 -60 3 -61 3 -80 -241z"/>
</g>
</svg>
